<?xml version="1.0" encoding="UTF-8"?>
<!DOCTYPE svg PUBLIC "-//W3C//DTD SVG 1.1//EN" "http://www.w3.org/Graphics/SVG/1.1/DTD/svg11.dtd">
<svg xmlns="http://www.w3.org/2000/svg" version="1.1" width="50px" height="33px" style="shape-rendering:geometricPrecision; text-rendering:geometricPrecision; image-rendering:optimizeQuality; fill-rule:evenodd; clip-rule:evenodd" xmlns:xlink="http://www.w3.org/1999/xlink">
<g><path fill="var(--main-color, #B88E2F)" d="M 17.5,1.5 C 22.3964,5.19914 23.5631,9.86581 21,15.5C 17.9155,20.0002 15.0821,24.6669 12.5,29.5C 8.89272,30.4892 5.22605,30.8226 1.5,30.5C 5.95782,20.3691 11.2912,10.7024 17.5,1.5 Z M 17.5,8.5 C 18.5983,9.60093 18.765,10.9343 18,12.5C 14.9042,17.7017 11.5708,22.7017 8,27.5C 7.5,27.3333 7,27.1667 6.5,27C 10.0522,20.7231 13.7188,14.5564 17.5,8.5 Z"/></g>
<g><path fill="var(--main-color, #B88E2F)" d="M 31.5,1.5 C 32.7942,2.2899 33.9609,3.2899 35,4.5C 39.8055,13.1029 44.3055,21.7696 48.5,30.5C 44.774,30.8226 41.1073,30.4892 37.5,29.5C 33.4394,23.2111 29.7728,16.7111 26.5,10C 28.0521,7.05679 29.7188,4.22346 31.5,1.5 Z M 31.5,8.5 C 32.4584,8.9528 33.2917,9.61947 34,10.5C 36.7671,16.2582 39.9338,21.7582 43.5,27C 41.4057,27.4453 39.9057,26.612 39,24.5C 35.6542,19.4794 33.1542,14.146 31.5,8.5 Z"/></g>
<g><path fill="var(--main-color, #B88E2F)" d="M 23.5,14.5 C 24.8221,14.33 25.9887,14.6634 27,15.5C 28.4131,18.6612 30.0797,21.6612 32,24.5C 32.6838,25.7839 32.5171,26.9505 31.5,28C 26.9132,28.7991 22.4132,28.6324 18,27.5C 17.3333,26.5 17.3333,25.5 18,24.5C 20.1118,21.2729 21.9451,17.9396 23.5,14.5 Z M 24.5,20.5 C 27.5484,23.5035 26.8817,24.6702 22.5,24C 23.305,22.8873 23.9717,21.7206 24.5,20.5 Z"/></g>
</svg>
