<?xml version="1.0" encoding="UTF-8"?>
<svg height="33px" xmlns="http://www.w3.org/2000/svg" version="1.2" baseProfile="tiny" viewBox="0 0 50 33" width="50px">
  <g fill="#B88E2F">
    <rect width="1" height="1" x="27" y="24" />
    <rect x="14" y="26" width="1" height="1" />
    <rect height="1" x="9" y="22" width="1" />
    <rect y="24" width="1" height="1" x="8" />
    <rect x="38" y="12" width="1" height="1" />
    <rect x="8" y="18" width="1" height="1" />
    <rect width="1" height="1" x="16" y="16" />
    <rect y="7" width="1" height="1" x="18" />
    <rect height="1" x="15" y="11" width="1" />
    <rect x="15" y="19" width="1" height="1" />
    <rect width="1" height="1" x="22" y="23" />
    <rect y="25" width="1" height="1" x="25" />
    <rect height="1" x="19" y="10" width="1" />
    <rect x="23" y="17" width="1" height="1" />
    <rect width="1" height="1" x="18" y="19" />
    <rect x="10" y="26" width="1" height="1" />
    <rect width="1" height="1" x="36" y="27" />
    <rect height="1" x="12" y="30" width="1" />
    <rect x="14" y="7" width="1" height="1" />
    <rect y="8" width="1" height="1" x="22" />
    <rect width="1" height="1" x="28" y="8" />
    <rect x="41" y="16" width="1" height="1" />
    <rect x="19" y="24" width="1" height="1" />
    <rect y="20" width="1" height="1" x="10" />
    <rect x="33" y="21" width="1" height="1" />
    <rect y="25" width="1" height="1" x="11" />
    <rect y="23" width="1" height="1" x="16" />
    <rect x="31" y="12" width="1" height="1" />
    <rect x="31" y="17" width="1" height="1" />
    <rect x="11" y="18" width="1" height="1" />
    <rect x="17" y="20" width="1" height="1" />
    <rect x="24" y="20" width="1" height="1" />
    <rect y="24" width="1" height="1" x="5" />
    <rect height="1" x="40" y="14" width="1" />
    <rect y="4" width="1" height="1" x="33" />
    <rect x="34" y="5" width="1" height="1" />
    <rect height="1" x="30" y="6" width="1" />
    <rect x="29" y="8" width="1" height="1" />
    <rect x="16" y="9" width="1" height="1" />
    <rect x="36" y="9" width="1" height="1" />
    <rect x="35" y="11" width="1" height="1" />
    <rect height="1" x="19" y="16" width="1" />
    <rect x="24" y="16" width="1" height="1" />
    <rect x="11" y="17" width="1" height="1" />
    <rect width="1" height="1" x="14" y="21" />
    <rect width="1" height="1" x="29" y="22" />
    <rect width="1" height="1" x="42" y="22" />
    <rect x="14" y="25" width="1" height="1" />
    <rect y="25" width="1" height="1" x="19" />
    <rect y="25" width="1" height="1" x="23" />
    <rect x="38" y="25" width="1" height="1" />
    <rect y="26" width="1" height="1" x="6" />
    <rect height="1" x="39" y="26" width="1" />
    <rect height="1" x="19" y="27" width="1" />
    <rect x="6" y="28" width="1" height="1" />
    <rect x="8" y="28" width="1" height="1" />
    <rect width="1" height="1" x="42" y="28" />
    <rect width="1" height="1" x="12" y="29" />
    <rect x="36" y="14" width="1" height="1" />
    <rect width="1" height="1" x="11" y="19" />
    <rect x="14" y="19" width="1" height="1" />
    <rect y="12" width="1" height="1" x="22" />
    <rect height="1" x="10" y="14" width="1" />
    <rect x="43" y="26" width="1" height="1" />
    <rect y="4" width="1" height="3" x="18" />
    <rect height="3" x="32" y="4" width="1" />
    <rect x="17" y="5" width="3" height="2" />
    <rect x="31" y="5" width="3" height="2" />
    <rect y="6" width="4" height="1" x="16" />
    <rect width="1" height="1" x="20" y="6" />
    <rect x="34" y="6" width="1" height="3" />
    <rect height="1" x="15" y="7" width="1" />
    <rect width="1" height="2" x="16" y="7" />
    <rect y="7" width="1" height="1" x="17" />
    <rect x="19" y="7" width="2" height="1" />
    <rect height="1" x="30" y="7" width="2" />
    <rect height="1" x="32" y="7" width="1" />
    <rect width="2" height="1" x="15" y="8" />
    <rect y="8" width="1" height="2" x="20" />
    <rect y="8" width="1" height="2" x="30" />
    <rect width="1" height="3" x="35" y="8" />
    <rect x="14" y="9" width="1" height="1" />
    <rect y="9" width="1" height="1" x="15" />
    <rect y="9" width="1" height="4" x="21" />
    <rect height="1" x="29" y="9" width="2" />
    <rect x="14" y="10" width="1" height="2" />
    <rect height="1" x="20" y="10" width="1" />
    <rect x="29" y="10" width="1" height="3" />
    <rect width="1" height="1" x="30" y="10" />
    <rect x="36" y="10" width="1" height="2" />
    <rect x="37" y="10" width="1" height="1" />
    <rect x="20" y="11" width="2" height="2" />
    <rect width="1" height="1" x="28" y="11" />
    <rect height="1" x="30" y="11" width="1" />
    <rect x="13" y="12" width="1" height="2" />
    <rect height="3" x="30" y="12" width="1" />
    <rect height="2" x="37" y="12" width="1" />
    <rect y="13" width="1" height="1" x="11" />
    <rect y="13" width="2" height="1" x="12" />
    <rect x="19" y="13" width="2" height="1" />
    <rect height="1" x="21" y="13" width="1" />
    <rect width="1" height="4" x="31" y="13" />
    <rect x="38" y="13" width="1" height="3" />
    <rect x="12" y="14" width="1" height="2" />
    <rect x="13" y="14" width="1" height="1" />
    <rect y="14" width="1" height="2" x="19" />
    <rect height="1" x="11" y="15" width="2" />
    <rect x="13" y="15" width="1" height="1" />
    <rect width="2" height="1" x="18" y="15" />
    <rect x="32" y="15" width="1" height="3" />
    <rect width="1" height="1" x="33" y="15" />
    <rect width="1" height="2" x="39" y="15" />
    <rect y="16" width="1" height="1" x="11" />
    <rect y="16" width="1" height="2" x="18" />
    <rect x="25" y="16" width="1" height="4" />
    <rect y="16" width="1" height="1" x="33" />
    <rect y="16" width="1" height="1" x="38" />
    <rect height="1" x="40" y="16" width="1" />
    <rect x="10" y="17" width="1" height="2" />
    <rect y="17" width="2" height="1" x="17" />
    <rect x="26" y="17" width="1" height="3" />
    <rect height="3" x="33" y="17" width="1" />
    <rect x="39" y="17" width="1" height="1" />
    <rect height="2" x="40" y="17" width="1" />
    <rect width="1" height="2" x="17" y="18" />
    <rect y="18" width="3" height="2" x="24" />
    <rect y="18" width="1" height="3" x="34" />
    <rect x="39" y="18" width="1" height="1" />
    <rect x="41" y="18" width="1" height="1" />
    <rect x="9" y="19" width="1" height="2" />
    <rect height="1" x="16" y="19" width="2" />
    <rect width="5" height="1" x="23" y="19" />
    <rect width="1" height="1" x="40" y="19" />
    <rect height="2" x="41" y="19" width="1" />
    <rect x="8" y="20" width="2" height="1" />
    <rect height="1" x="15" y="20" width="2" />
    <rect y="20" width="1" height="2" x="23" />
    <rect x="27" y="20" width="1" height="2" />
    <rect y="20" width="1" height="1" x="28" />
    <rect y="20" width="1" height="3" x="35" />
    <rect width="1" height="1" x="40" y="20" />
    <rect y="20" width="1" height="2" x="42" />
    <rect x="8" y="21" width="1" height="2" />
    <rect height="2" x="15" y="21" width="1" />
    <rect x="22" y="21" width="2" height="1" />
    <rect x="26" y="21" width="1" height="1" />
    <rect y="21" width="1" height="2" x="28" />
    <rect x="34" y="21" width="1" height="1" />
    <rect x="43" y="21" width="1" height="1" />
    <rect x="7" y="22" width="2" height="1" />
    <rect height="1" x="14" y="22" width="2" />
    <rect x="21" y="22" width="1" height="1" />
    <rect x="22" y="22" width="1" height="1" />
    <rect y="22" width="1" height="3" x="36" />
    <rect height="2" x="43" y="22" width="1" />
    <rect y="23" width="1" height="1" x="6" />
    <rect width="1" height="1" x="7" y="23" />
    <rect height="2" x="14" y="23" width="1" />
    <rect width="1" height="1" x="15" y="23" />
    <rect x="21" y="23" width="1" height="5" />
    <rect y="23" width="1" height="1" x="28" />
    <rect width="1" height="5" x="29" y="23" />
    <rect x="30" y="23" width="1" height="1" />
    <rect width="1" height="1" x="44" y="23" />
    <rect x="6" y="24" width="1" height="2" />
    <rect height="1" x="13" y="24" width="2" />
    <rect y="24" width="2" height="4" x="20" />
    <rect height="1" x="28" y="24" width="1" />
    <rect x="30" y="24" width="1" height="4" />
    <rect x="37" y="24" width="1" height="3" />
    <rect x="38" y="24" width="1" height="1" />
    <rect height="1" x="43" y="24" width="1" />
    <rect width="1" height="2" x="44" y="24" />
    <rect x="5" y="25" width="2" height="1" />
    <rect width="2" height="2" x="12" y="25" />
    <rect height="1" x="22" y="25" width="1" />
    <rect height="1" x="27" y="25" width="1" />
    <rect x="31" y="25" width="1" height="1" />
    <rect width="1" height="1" x="36" y="25" />
    <rect y="26" width="1" height="4" x="5" />
    <rect height="1" x="19" y="26" width="13" />
    <rect x="38" y="26" width="1" height="2" />
    <rect x="45" y="26" width="1" height="4" />
    <rect x="4" y="27" width="2" height="3" />
    <rect x="11" y="27" width="2" height="1" />
    <rect x="22" y="27" width="9" height="1" />
    <rect y="27" width="1" height="1" x="31" />
    <rect y="27" width="1" height="1" x="37" />
    <rect width="1" height="1" x="39" y="27" />
    <rect width="1" height="3" x="46" y="27" />
    <rect width="2" height="2" x="10" y="28" />
    <rect height="2" x="39" y="28" width="1" />
    <rect x="40" y="28" width="1" height="1" />
    <rect x="41" y="28" width="1" height="1" />
    <rect x="43" y="28" width="1" height="1" />
    <rect width="1" height="1" x="47" y="28" />
    <rect height="1" x="3" y="29" width="9" />
    <rect width="8" height="1" x="40" y="29" />
    <rect x="4" y="30" width="1" height="1" />
    <rect x="5" y="30" width="1" height="1" />
    <rect x="8" y="30" width="2" height="1" />
    <rect y="30" width="1" height="1" x="40" />
    <rect width="1" height="1" x="41" y="30" />
    <rect y="30" width="3" height="1" x="43" />
    <rect height="1" x="21" y="7" width="1" />
    <rect width="1" height="1" x="19" y="12" />
    <rect y="28" width="1" height="1" x="37" />
    <rect y="9" width="1" height="1" x="33" />
    <rect y="13" width="1" height="1" x="28" />
    <rect x="33" y="14" width="1" height="1" />
    <rect x="32" y="25" width="1" height="1" />
    <rect x="34" y="10" width="1" height="1" />
    <rect x="18" y="14" width="1" height="1" />
    <rect x="30" y="16" width="1" height="1" />
    <rect x="8" y="23" width="1" height="1" />
    <rect width="1" height="1" x="6" y="30" />
    <rect width="1" height="1" x="42" y="30" />
    <rect height="1" x="10" y="15" width="1" />
    <rect y="15" width="1" height="1" x="26" />
    <rect height="1" x="7" y="26" width="1" />
    <rect height="1" x="48" y="30" width="1" />
    <rect x="34" y="16" width="1" height="1" />
    <rect width="1" height="1" x="32" y="2" />
    <rect x="36" y="7" width="1" height="1" />
    <rect x="14" y="14" width="1" height="1" />
    <rect height="1" x="28" y="9" width="1" />
    <rect x="6" y="22" width="1" height="1" />
    <rect width="1" height="1" x="35" y="24" />
    <rect y="27" width="1" height="1" x="18" />
    <rect height="1" x="27" y="17" width="1" />
    <rect height="1" x="45" y="23" width="1" />
    <rect x="44" y="21" width="1" height="1" />
    <rect height="1" x="38" y="30" width="1" />
    <rect height="1" x="16" y="22" width="1" />
    <rect x="42" y="24" width="1" height="1" />
    <rect width="1" height="1" x="32" y="26" />
    <rect x="38" y="29" width="1" height="1" />
    <rect height="1" x="30" y="4" width="1" />
    <rect x="37" y="16" width="1" height="1" />
    <rect height="1" x="7" y="19" width="1" />
    <rect x="6" y="21" width="1" height="1" />
    <rect x="23" y="23" width="1" height="1" />
    <rect x="30" y="28" width="1" height="1" />
    <rect height="1" x="20" y="16" width="1" />
    <rect height="1" x="35" y="12" width="1" />
    <rect height="1" x="12" y="23" width="1" />
    <rect y="28" width="1" height="1" x="20" />
    <rect height="1" x="16" y="5" width="1" />
    <rect x="12" y="16" width="1" height="1" />
    <rect x="26" y="16" width="1" height="1" />
    <rect x="9" y="18" width="1" height="1" />
    <rect height="1" x="34" y="22" width="1" />
    <rect x="20" y="23" width="1" height="1" />
    <rect x="35" y="23" width="1" height="1" />
    <rect x="7" y="25" width="1" height="1" />
    <rect x="28" y="25" width="1" height="1" />
    <rect y="25" width="1" height="1" x="45" />
    <rect y="26" width="1" height="1" x="4" />
    <rect x="6" y="27" width="1" height="1" />
    <rect x="9" y="28" width="1" height="1" />
    <rect width="1" height="1" x="44" y="28" />
    <rect x="43" y="20" width="1" height="1" />
    <rect y="22" width="1" height="1" x="20" />
    <rect x="18" y="13" width="1" height="1" />
    <rect x="37" y="15" width="1" height="1" />
    <rect x="32" y="19" width="1" height="1" />
    <rect x="17" y="8" width="1" height="1" />
    <rect y="8" width="1" height="1" x="32" />
    <rect width="1" height="1" x="22" y="18" />
    <rect height="1" x="40" y="26" width="1" />
    <rect y="28" width="1" height="1" x="19" />
    <rect x="2" y="30" width="1" height="1" />
    <rect y="14" width="1" height="1" x="21" />
    <rect x="36" y="20" width="1" height="1" />
    <rect width="1" height="1" x="36" y="26" />
    <rect height="1" x="32" y="3" width="1" />
    <rect x="33" y="7" width="1" height="1" />
    <rect height="1" x="14" y="8" width="1" />
    <rect height="1" x="15" y="10" width="1" />
    <rect y="14" width="1" height="1" x="11" />
    <rect height="1" x="20" y="14" width="1" />
    <rect x="37" y="14" width="1" height="1" />
    <rect width="1" height="1" x="42" y="18" />
    <rect x="26" y="20" width="1" height="1" />
    <rect x="7" y="21" width="1" height="1" />
    <rect y="21" width="1" height="1" x="41" />
    <rect y="23" width="1" height="1" x="13" />
    <rect x="46" y="26" width="1" height="1" />
    <rect height="1" x="3" y="30" width="1" />
    <rect y="30" width="1" height="1" x="11" />
    <rect y="4" width="1" height="1" x="17" />
    <rect y="10" width="1" height="1" x="22" />
    <rect height="1" x="22" y="11" width="1" />
    <rect width="1" height="1" x="11" y="26" />
    <rect height="1" x="15" y="12" width="1" />
    <rect x="34" y="23" width="1" height="1" />
    <rect x="32" y="13" width="1" height="1" />
    <rect width="1" height="1" x="29" y="14" />
    <rect x="41" y="22" width="1" height="1" />
    <rect x="17" y="14" width="1" height="1" />
    <rect x="10" y="27" width="1" height="1" />
    <rect width="1" height="1" x="17" y="3" />
    <rect height="1" x="21" y="8" width="1" />
    <rect y="8" width="1" height="1" x="31" />
    <rect y="9" width="1" height="1" x="34" />
    <rect x="37" y="11" width="1" height="1" />
    <rect height="1" x="10" y="16" width="1" />
    <rect height="1" x="27" y="18" width="1" />
    <rect y="19" width="1" height="1" x="10" />
    <rect width="1" height="1" x="28" y="19" />
    <rect width="1" height="1" x="22" y="20" />
    <rect x="36" y="21" width="1" height="1" />
    <rect x="7" y="24" width="1" height="1" />
    <rect y="27" width="1" height="1" x="44" />
    <rect width="1" height="1" x="2" y="29" />
    <rect width="1" height="1" x="39" y="30" />
    <rect x="47" y="30" width="1" height="1" />
    <rect width="1" height="1" x="19" y="4" />
    <rect x="20" y="5" width="1" height="1" />
    <rect y="5" width="1" height="1" x="30" />
    <rect y="11" width="1" height="1" x="13" />
    <rect y="12" width="1" height="1" x="36" />
    <rect x="24" y="17" width="1" height="1" />
    <rect width="1" height="1" x="16" y="18" />
    <rect x="18" y="18" width="1" height="1" />
    <rect x="8" y="19" width="1" height="1" />
    <rect x="42" y="19" width="1" height="1" />
    <rect height="1" x="7" y="20" width="1" />
    <rect x="16" y="21" width="1" height="1" />
    <rect height="1" x="23" y="22" width="1" />
    <rect x="27" y="22" width="1" height="1" />
    <rect x="12" y="24" width="1" height="1" />
    <rect x="22" y="24" width="1" height="1" />
    <rect height="1" x="38" y="28" width="1" />
    <rect width="1" height="1" x="16" y="10" />
    <rect height="1" x="17" y="21" width="1" />
    <rect height="1" x="29" y="20" width="1" />
    <rect width="1" height="1" x="48" y="29" />
    <rect x="18" y="3" width="1" height="1" />
    <rect x="26" y="25" width="1" height="1" />
    <rect y="25" width="1" height="1" x="43" />
    <rect x="18" y="8" width="1" height="1" />
    <rect width="1" height="1" x="22" y="9" />
    <rect x="28" y="10" width="1" height="1" />
    <rect x="12" y="12" width="1" height="1" />
    <rect x="36" y="13" width="1" height="1" />
    <rect x="32" y="14" width="1" height="1" />
    <rect y="15" width="1" height="1" x="17" />
    <rect width="1" height="1" x="30" y="15" />
    <rect y="17" width="1" height="1" x="9" />
    <rect y="17" width="1" height="1" x="41" />
    <rect x="29" y="21" width="1" height="1" />
    <rect y="23" width="1" height="1" x="42" />
    <rect y="28" width="1" height="1" x="7" />
    <rect x="7" y="30" width="1" height="1" />
    <rect x="46" y="30" width="1" height="1" />
    <rect y="21" width="1" height="1" x="13" />
    <rect height="1" x="32" y="27" width="1" />
    <rect width="1" height="1" x="35" y="6" />
    <rect x="29" y="7" width="1" height="1" />
    <rect height="1" x="39" y="14" width="1" />
    <rect width="1" height="1" x="10" y="30" />
    <rect x="19" y="8" width="1" height="1" />
    <rect x="20" y="15" width="1" height="1" />
    <rect y="18" width="1" height="1" x="32" />
    <rect x="3" y="28" width="1" height="1" />
    <rect width="1" height="1" x="34" y="4" />
    <rect x="33" y="3" width="1" height="1" />
    <rect width="1" height="1" x="33" y="8" />
    <rect y="27" width="1" height="1" x="47" />
    <rect height="1" x="31" y="4" width="1" />
    <rect y="9" width="1" height="1" x="19" />
    <rect width="1" height="1" x="31" y="9" />
    <rect width="1" height="1" x="14" y="12" />
    <rect height="1" x="23" y="18" width="1" />
    <rect width="1" height="1" x="37" y="23" />
    <rect height="1" x="31" y="24" width="1" />
    <rect x="44" y="26" width="1" height="1" />
    <rect height="1" x="12" y="28" width="1" />
    <rect x="15" y="25" width="1" height="1" />
    <rect width="1" height="1" x="26" y="22" />
    <rect x="41" y="23" width="1" height="1" />
    <rect y="11" width="1" height="1" x="31" />
    <rect width="1" height="1" x="21" y="15" />
    <rect height="1" x="21" y="20" width="1" />
    <rect height="1" x="30" y="22" width="1" />
    <rect height="1" x="39" y="25" width="1" />
    <rect y="6" width="1" height="1" x="21" />
    <rect x="35" y="7" width="1" height="1" />
    <rect x="37" y="22" width="1" height="1" />
    <rect width="1" height="1" x="44" y="22" />
    <rect height="1" x="19" y="18" width="1" />
    <rect y="18" width="1" height="1" x="28" />
    <rect x="18" y="20" width="1" height="1" />
    <rect x="19" y="3" width="1" height="1" />
    <rect x="21" y="28" width="9" height="1" />
    <rect y="15" width="1" height="1" x="25" />
    <rect x="35" y="25" width="1" height="1" />
    <rect x="12" y="17" width="1" height="1" />
    <rect y="21" width="1" height="1" x="37" />
    <rect x="16" y="17" width="1" height="1" />
    <rect height="1" x="31" y="28" width="1" />
    <rect x="18" y="2" width="1" height="1" />
    <rect height="1" x="17" y="9" width="1" />
    <rect x="31" y="10" width="1" height="1" />
    <rect width="1" height="1" x="5" y="23" />
    <rect width="1" height="1" x="38" y="23" />
    <rect y="6" width="1" height="1" x="15" />
    <rect width="1" height="1" x="14" y="13" />
    <rect height="1" x="34" y="17" width="1" />
    <rect x="38" y="17" width="1" height="1" />
    <rect width="1" height="1" x="33" y="20" />
    <rect x="45" y="24" width="1" height="1" />
    <rect width="1" height="1" x="9" y="16" />
    <rect height="1" x="39" y="19" width="1" />
    <rect width="1" height="1" x="2" y="28" />
    <rect width="1" height="1" x="28" y="12" />
    <rect width="1" height="1" x="22" y="19" />
    <rect height="1" x="35" y="19" width="1" />
    <rect height="1" x="21" y="21" width="1" />
    <rect x="32" y="20" width="1" height="1" />
    <rect height="1" x="13" y="16" width="1" />
    <rect height="1" x="48" y="28" width="1" />
    <rect x="14" y="20" width="1" height="1" />
    <rect x="9" y="21" width="1" height="1" />
    <rect width="1" height="1" x="13" y="27" />
    <rect height="1" x="24" y="21" width="1" />
    <rect x="13" y="22" width="1" height="1" />
    <rect height="1" x="18" y="26" width="1" />
    <rect x="31" y="3" width="1" height="1" />
    <rect height="1" x="13" y="10" width="1" />
    <rect x="17" y="16" width="1" height="1" />
    <rect x="25" y="20" width="1" height="1" />
    <rect x="3" y="27" width="1" height="1" />
    <rect width="1" height="1" x="40" y="21" />
    <rect x="24" y="25" width="1" height="1" />
    <rect width="1" height="1" x="46" y="25" />
    <rect x="13" y="28" width="1" height="1" />
    <rect x="15" y="5" width="1" height="1" />
    <rect height="1" x="39" y="12" width="1" />
    <rect x="47" y="26" width="1" height="1" />
    <rect x="24" y="15" width="1" height="1" />
    <rect height="1" x="43" y="19" width="1" />
    <rect y="26" width="1" height="1" x="3" />
    <rect y="9" width="1" height="1" x="13" />
    <rect width="1" height="1" x="39" y="13" />
    <rect y="17" width="1" height="1" x="8" />
    <rect height="1" x="38" y="18" width="1" />
    <rect height="1" x="15" y="18" width="1" />
    <rect x="10" y="21" width="1" height="1" />
    <rect height="1" x="18" y="25" width="1" />
    <rect width="1" height="1" x="15" y="24" />
    <rect y="4" width="1" height="1" x="16" />
    <rect width="1" height="1" x="40" y="27" />
    <rect height="1" x="29" y="6" width="1" />
    <rect x="4" y="25" width="1" height="1" />
    <rect y="11" width="1" height="1" x="12" />
    <rect height="1" x="19" y="11" width="1" />
    <rect height="1" x="38" y="11" width="1" />
    <rect height="1" x="31" y="18" width="1" />
    <rect height="1" x="35" y="5" width="1" />
    <rect width="1" height="1" x="27" y="10" />
    <rect width="1" height="1" x="22" y="13" />
    <rect x="27" y="16" width="1" height="1" />
    <rect x="31" y="23" width="1" height="1" />
    <rect width="1" height="1" x="37" y="9" />
    <rect x="36" y="8" width="1" height="1" />
    <rect width="1" height="1" x="29" y="13" />
    <rect x="40" y="15" width="1" height="1" />
    <rect x="19" y="17" width="1" height="1" />
    <rect y="23" width="1" height="1" x="27" />
    <rect height="1" x="35" y="18" width="1" />
  </g>
</svg>
